<svg width="37" height="29" viewBox="0 0 37 29" fill="none" xmlns="http://www.w3.org/2000/svg">
<path d="M23.9375 12.5625C23.9375 9.42138 21.3911 6.875 18.25 6.875C15.1089 6.875 12.5625 9.42138 12.5625 12.5625C12.5625 15.7036 15.1089 18.25 18.25 18.25C21.3911 18.25 23.9375 15.7036 23.9375 12.5625Z" stroke="black" stroke-width="4" stroke-linecap="round" stroke-linejoin="round"/>
<path d="M23.9099 13.131C24.4331 13.2897 24.9881 13.375 25.563 13.375C28.7041 13.375 31.2505 10.8286 31.2505 7.6875C31.2505 4.54638 28.7041 2 25.563 2C22.6138 2 20.1888 4.24478 19.9036 7.11896" stroke="black" stroke-width="4" stroke-linecap="round" stroke-linejoin="round"/>
<path d="M16.5969 7.11896C16.3117 4.24478 13.8867 2 10.9375 2C7.79638 2 5.25 4.54638 5.25 7.6875C5.25 10.8286 7.79638 13.375 10.9375 13.375C11.5124 13.375 12.0674 13.2897 12.5906 13.131" stroke="black" stroke-width="4" stroke-linecap="round" stroke-linejoin="round"/>
<path d="M34.5 21.5C34.5 17.0127 30.4985 13.375 25.5625 13.375" stroke="black" stroke-width="4" stroke-linecap="round" stroke-linejoin="round"/>
<path d="M27.1875 26.375C27.1875 21.8877 23.186 18.25 18.25 18.25C13.314 18.25 9.3125 21.8877 9.3125 26.375" stroke="black" stroke-width="4" stroke-linecap="round" stroke-linejoin="round"/>
<path d="M10.9375 13.375C6.00145 13.375 2 17.0127 2 21.5" stroke="black" stroke-width="4" stroke-linecap="round" stroke-linejoin="round"/>
</svg>
