<svg width="73" height="78" viewBox="0 0 73 78" fill="none" xmlns="http://www.w3.org/2000/svg">
<path d="M36.2548 75.0769H30.8462C17.2478 75.0769 10.4487 75.0769 6.22425 70.7961C1.99982 66.5153 1.99988 59.6255 2 45.8459L2.00013 31.2305C2.00025 17.4511 2.00031 10.5614 6.22472 6.2807C10.4491 2 17.2482 2 30.8463 2H34.4517C48.0499 2 54.849 2 59.0734 6.28075C63.2978 10.5615 63.2978 17.4513 63.2978 31.2308V34.8846" stroke="black" stroke-width="4" stroke-linecap="round" stroke-linejoin="round"/>
<path d="M18.2266 20.2695H47.0727M18.2266 38.5388H34.4525" stroke="black" stroke-width="4" stroke-linecap="round" stroke-linejoin="round"/>
<path d="M56.0871 70.5937C62.4597 70.5937 67.6256 65.2399 67.6256 58.6357C67.6256 52.0314 62.4597 46.6776 56.0871 46.6776M56.0871 70.5937C49.7146 70.5937 44.5487 65.2399 44.5487 58.6357C44.5487 52.0314 49.7146 46.6776 56.0871 46.6776M56.0871 70.5937V75.078M56.0871 46.6776V42.1934M45.599 52.1131L41.6657 49.6671M70.5102 67.6042L66.5769 65.1582M66.5753 52.1131L70.5086 49.6671M41.6641 67.6042L45.5974 65.1582" stroke="black" stroke-width="4" stroke-linecap="round"/>
</svg>
